<svg width="735" height="329" viewBox="0 0 735 329" fill="none" xmlns="http://www.w3.org/2000/svg">
<g clip-path="url(#clip0)">
<path d="M195.325 114.71L145.345 263.39H85.0755L35.0955 114.71H84.6555L115.315 216.98L145.765 114.71H195.325ZM303.621 172.46V210.89H205.761V172.46H303.621ZM384.928 114.71V198.5C384.928 205.36 386.398 210.82 389.338 214.88C392.418 218.8 397.318 220.76 404.038 220.76C410.758 220.76 415.728 218.8 418.948 214.88C422.168 210.82 423.778 205.36 423.778 198.5V114.71H470.188V198.5C470.188 212.64 467.248 224.75 461.368 234.83C455.488 244.77 447.438 252.26 437.218 257.3C426.998 262.34 415.588 264.86 402.988 264.86C390.388 264.86 379.188 262.34 369.388 257.3C359.728 252.26 352.168 244.77 346.708 234.83C341.248 224.89 338.518 212.78 338.518 198.5V114.71H384.928ZM579.545 144.11C593.125 144.11 603.695 148.66 611.255 157.76C618.955 166.86 622.805 179.18 622.805 194.72V263.39H576.395V200.6C576.395 195 574.855 190.59 571.775 187.37C568.835 184.01 564.845 182.33 559.805 182.33C554.625 182.33 550.565 184.01 547.625 187.37C544.685 190.59 543.215 195 543.215 200.6V263.39H496.595V144.95H543.215V163.01C546.855 157.41 551.685 152.86 557.705 149.36C563.865 145.86 571.145 144.11 579.545 144.11ZM672.841 135.5C664.721 135.5 658.211 133.33 653.311 128.99C648.411 124.65 645.961 119.19 645.961 112.61C645.961 105.89 648.411 100.36 653.311 96.0203C658.211 91.5403 664.721 89.3003 672.841 89.3003C680.821 89.3003 687.261 91.5403 692.161 96.0203C697.061 100.36 699.511 105.89 699.511 112.61C699.511 119.19 697.061 124.65 692.161 128.99C687.261 133.33 680.821 135.5 672.841 135.5ZM695.941 144.95V263.39H649.321V144.95H695.941Z" fill="#F7CD53"/>
<path d="M204.34 85.56L161.5 213H109.84L67 85.56H109.48L135.76 173.22L161.86 85.56H204.34ZM277.365 135.06V168H193.485V135.06H277.365ZM327.256 85.56V157.38C327.256 163.26 328.516 167.94 331.036 171.42C333.676 174.78 337.876 176.46 343.636 176.46C349.396 176.46 353.656 174.78 356.416 171.42C359.176 167.94 360.556 163.26 360.556 157.38V85.56H400.336V157.38C400.336 169.5 397.816 179.88 392.776 188.52C387.736 197.04 380.836 203.46 372.076 207.78C363.316 212.1 353.536 214.26 342.736 214.26C331.936 214.26 322.336 212.1 313.936 207.78C305.656 203.46 299.176 197.04 294.496 188.52C289.816 180 287.476 169.62 287.476 157.38V85.56H327.256ZM474.271 110.76C485.911 110.76 494.971 114.66 501.451 122.46C508.051 130.26 511.351 140.82 511.351 154.14V213H471.571V159.18C471.571 154.38 470.251 150.6 467.611 147.84C465.091 144.96 461.671 143.52 457.351 143.52C452.911 143.52 449.431 144.96 446.911 147.84C444.391 150.6 443.131 154.38 443.131 159.18V213H403.171V111.48H443.131V126.96C446.251 122.16 450.391 118.26 455.551 115.26C460.831 112.26 467.071 110.76 474.271 110.76ZM534.439 103.38C527.479 103.38 521.899 101.52 517.699 97.8C513.499 94.08 511.399 89.4 511.399 83.76C511.399 78 513.499 73.26 517.699 69.54C521.899 65.7 527.479 63.78 534.439 63.78C541.279 63.78 546.799 65.7 550.999 69.54C555.199 73.26 557.299 78 557.299 83.76C557.299 89.4 555.199 94.08 550.999 97.8C546.799 101.52 541.279 103.38 534.439 103.38ZM554.239 111.48V213H514.279V111.48H554.239Z" fill="black"/>
</g>
<path d="M109.924 245.41L103.554 255.68V264.13H100.694V255.68L94.376 245.41H97.652L102.228 252.976L106.856 245.41H109.924ZM129.341 257.552C129.341 259.615 128.769 261.261 127.625 262.492C126.498 263.723 124.912 264.338 122.867 264.338C120.943 264.338 119.383 263.757 118.187 262.596C116.991 261.435 116.393 259.762 116.393 257.578C116.393 256.642 116.523 255.758 116.783 254.926C117.043 254.094 117.433 253.366 117.953 252.742C118.49 252.118 119.158 251.624 119.955 251.26C120.77 250.896 121.723 250.714 122.815 250.714C124.86 250.714 126.455 251.338 127.599 252.586C128.76 253.817 129.341 255.472 129.341 257.552ZM126.481 257.552C126.481 256.963 126.412 256.399 126.273 255.862C126.152 255.307 125.944 254.813 125.649 254.38C125.354 253.947 124.973 253.6 124.505 253.34C124.037 253.08 123.465 252.95 122.789 252.95C122.148 252.95 121.593 253.08 121.125 253.34C120.674 253.583 120.302 253.912 120.007 254.328C119.712 254.761 119.496 255.255 119.357 255.81C119.236 256.365 119.175 256.954 119.175 257.578C119.175 258.185 119.244 258.765 119.383 259.32C119.522 259.857 119.738 260.334 120.033 260.75C120.328 261.166 120.709 261.495 121.177 261.738C121.662 261.981 122.234 262.102 122.893 262.102C123.534 262.102 124.08 261.981 124.531 261.738C124.999 261.478 125.372 261.14 125.649 260.724C125.944 260.308 126.152 259.831 126.273 259.294C126.412 258.739 126.481 258.159 126.481 257.552ZM149.502 264.026H146.928V261.322H146.798C146.555 262.102 146.105 262.795 145.446 263.402C144.805 264.009 143.817 264.312 142.482 264.312C141.893 264.312 141.338 264.208 140.818 264C140.315 263.775 139.873 263.471 139.492 263.09C139.111 262.709 138.807 262.258 138.582 261.738C138.374 261.218 138.27 260.655 138.27 260.048V250.974H140.896V259.112C140.896 259.441 140.913 259.779 140.948 260.126C140.983 260.455 141.078 260.75 141.234 261.01C141.39 261.287 141.615 261.513 141.91 261.686C142.205 261.859 142.603 261.946 143.106 261.946C144.111 261.946 144.9 261.582 145.472 260.854C146.044 260.109 146.443 259.251 146.668 258.28C146.72 257.968 146.763 257.665 146.798 257.37C146.833 257.058 146.859 256.755 146.876 256.46V250.974H149.502V264.026ZM167.606 253.444C166.306 253.444 165.18 253.687 164.226 254.172C163.273 254.64 162.666 255.429 162.406 256.538C162.32 256.85 162.25 257.197 162.198 257.578C162.164 257.942 162.138 258.332 162.12 258.748V264.104H159.39V251.026H162.12V253.678H162.25C162.354 253.435 162.519 253.123 162.744 252.742C162.97 252.343 163.273 252.014 163.654 251.754C164.174 251.407 164.694 251.156 165.214 251C165.734 250.827 166.532 250.74 167.606 250.74V253.444ZM201.122 262.96C201.122 264.953 200.55 266.444 199.406 267.432C198.262 268.42 196.633 268.914 194.518 268.914C193.842 268.914 193.097 268.853 192.282 268.732C191.468 268.611 190.766 268.42 190.176 268.16V265.508C190.922 265.889 191.684 266.158 192.464 266.314C193.262 266.47 194.033 266.548 194.778 266.548C195.922 266.548 196.78 266.297 197.352 265.794C197.924 265.309 198.262 264.685 198.366 263.922C198.384 263.818 198.392 263.74 198.392 263.688C198.392 263.619 198.392 263.567 198.392 263.532C198.392 263.497 198.392 263.463 198.392 263.428C198.392 263.393 198.392 263.333 198.392 263.246V261.66H198.314C198.28 261.747 198.202 261.92 198.08 262.18C197.959 262.44 197.768 262.709 197.508 262.986C197.248 263.263 196.893 263.515 196.442 263.74C196.009 263.948 195.454 264.052 194.778 264.052C193.201 264.052 191.884 263.523 190.826 262.466C189.769 261.391 189.24 259.831 189.24 257.786C189.24 257.266 189.258 256.755 189.292 256.252C189.344 255.749 189.414 255.299 189.5 254.9C189.622 254.363 189.83 253.834 190.124 253.314C190.436 252.794 190.826 252.343 191.294 251.962C191.745 251.563 192.282 251.243 192.906 251C193.53 250.757 194.224 250.636 194.986 250.636C195.472 250.636 195.905 250.723 196.286 250.896C196.685 251.069 197.023 251.277 197.3 251.52C197.56 251.763 197.777 252.023 197.95 252.3C198.124 252.577 198.245 252.82 198.314 253.028H198.392V250.948H201.122V262.96ZM198.288 257.266C198.288 256.729 198.21 256.2 198.054 255.68C197.898 255.16 197.682 254.692 197.404 254.276C197.127 253.86 196.789 253.522 196.39 253.262C195.992 253.002 195.55 252.872 195.064 252.872C194.492 252.872 193.903 253.097 193.296 253.548C192.707 253.999 192.308 254.692 192.1 255.628C192.066 255.767 192.04 255.94 192.022 256.148C192.005 256.339 191.996 256.538 191.996 256.746C191.979 256.954 191.97 257.162 191.97 257.37C191.97 257.561 191.97 257.717 191.97 257.838C191.97 258.323 192.022 258.809 192.126 259.294C192.23 259.762 192.404 260.178 192.646 260.542C192.906 260.923 193.227 261.227 193.608 261.452C194.007 261.677 194.492 261.79 195.064 261.79C195.966 261.79 196.728 261.374 197.352 260.542C197.976 259.71 198.288 258.618 198.288 257.266ZM220.923 264.026H218.141V262.622H218.115C218.028 262.726 217.898 262.873 217.725 263.064C217.569 263.255 217.335 263.445 217.023 263.636C216.711 263.809 216.312 263.965 215.827 264.104C215.342 264.243 214.752 264.312 214.059 264.312C213.574 264.312 213.088 264.225 212.603 264.052C212.135 263.896 211.719 263.662 211.355 263.35C210.974 263.038 210.67 262.665 210.445 262.232C210.22 261.781 210.107 261.27 210.107 260.698C210.107 259.693 210.436 258.817 211.095 258.072C211.771 257.309 212.551 256.798 213.435 256.538C214.475 256.226 215.411 256.07 216.243 256.07C217.075 256.053 217.708 256.053 218.141 256.07V255.342C218.141 255.134 218.124 254.9 218.089 254.64C218.054 254.38 217.95 254.094 217.777 253.782C217.621 253.539 217.37 253.331 217.023 253.158C216.694 252.985 216.269 252.898 215.749 252.898C215.056 252.898 214.484 253.071 214.033 253.418C213.6 253.765 213.383 254.285 213.383 254.978H210.471C210.471 254.423 210.575 253.886 210.783 253.366C211.008 252.846 211.338 252.387 211.771 251.988C212.222 251.589 212.776 251.269 213.435 251.026C214.094 250.783 214.874 250.662 215.775 250.662C217.543 250.662 218.843 251.113 219.675 252.014C220.507 252.898 220.923 253.973 220.923 255.238V264.026ZM218.141 258.956V258.046C217.725 258.029 217.274 258.029 216.789 258.046C216.321 258.063 215.827 258.124 215.307 258.228C214.804 258.332 214.302 258.583 213.799 258.982C213.296 259.363 213.045 259.849 213.045 260.438C213.045 261.045 213.244 261.469 213.643 261.712C214.042 261.937 214.492 262.05 214.995 262.05C215.463 262.05 216 261.885 216.607 261.556C217.231 261.227 217.673 260.759 217.933 260.152C217.985 259.979 218.028 259.797 218.063 259.606C218.115 259.415 218.141 259.199 218.141 258.956ZM237.505 253.288H233.787V259.554C233.787 259.883 233.796 260.204 233.813 260.516C233.848 260.811 233.917 261.071 234.021 261.296C234.142 261.539 234.324 261.729 234.567 261.868C234.81 262.007 235.148 262.076 235.581 262.076C235.841 262.076 236.11 262.059 236.387 262.024C236.664 261.989 237.011 261.903 237.427 261.764V264.234C236.924 264.303 236.5 264.347 236.153 264.364C235.806 264.381 235.486 264.39 235.191 264.39C233.787 264.39 232.738 264.078 232.045 263.454C231.369 262.813 231.031 261.851 231.031 260.568V253.288H228.795V251.026H231.031V248.244L233.787 246.58V251.026H237.505V253.288ZM257.248 256.59H257.196V258.28H248.044C248.131 258.817 248.287 259.32 248.512 259.788C248.755 260.256 249.093 260.672 249.526 261.036C249.959 261.383 250.505 261.66 251.164 261.868C251.823 262.076 252.62 262.18 253.556 262.18C253.643 262.18 253.799 262.171 254.024 262.154C254.267 262.119 254.544 262.067 254.856 261.998C255.168 261.946 255.497 261.859 255.844 261.738C256.191 261.617 256.52 261.461 256.832 261.27V263.376C256.156 263.775 255.393 264.043 254.544 264.182C253.712 264.338 252.871 264.39 252.022 264.338C251.19 264.286 250.393 264.139 249.63 263.896C248.867 263.636 248.226 263.307 247.706 262.908C246.961 262.353 246.345 261.582 245.86 260.594C245.375 259.589 245.132 258.462 245.132 257.214C245.132 255.29 245.678 253.721 246.77 252.508C247.862 251.295 249.474 250.688 251.606 250.688C253.253 250.688 254.587 251.225 255.61 252.3C256.65 253.357 257.196 254.787 257.248 256.59ZM254.466 256.07C254.466 255.706 254.405 255.333 254.284 254.952C254.163 254.571 253.989 254.233 253.764 253.938C253.521 253.643 253.209 253.401 252.828 253.21C252.464 253.019 252.031 252.924 251.528 252.924C250.54 252.924 249.725 253.201 249.084 253.756C248.46 254.293 248.087 255.065 247.966 256.07H254.466ZM282.761 250.974L279.329 264.052H276.703L273.765 254.874H273.661L270.801 264.052H268.227L264.691 250.974H267.369L269.631 260.542H269.683L272.621 250.974H274.857L277.795 260.516H277.847L280.109 250.974H282.761ZM301.133 264.026H298.351V262.622H298.325C298.238 262.726 298.108 262.873 297.935 263.064C297.779 263.255 297.545 263.445 297.233 263.636C296.921 263.809 296.522 263.965 296.037 264.104C295.552 264.243 294.962 264.312 294.269 264.312C293.784 264.312 293.298 264.225 292.813 264.052C292.345 263.896 291.929 263.662 291.565 263.35C291.184 263.038 290.88 262.665 290.655 262.232C290.43 261.781 290.317 261.27 290.317 260.698C290.317 259.693 290.646 258.817 291.305 258.072C291.981 257.309 292.761 256.798 293.645 256.538C294.685 256.226 295.621 256.07 296.453 256.07C297.285 256.053 297.918 256.053 298.351 256.07V255.342C298.351 255.134 298.334 254.9 298.299 254.64C298.264 254.38 298.16 254.094 297.987 253.782C297.831 253.539 297.58 253.331 297.233 253.158C296.904 252.985 296.479 252.898 295.959 252.898C295.266 252.898 294.694 253.071 294.243 253.418C293.81 253.765 293.593 254.285 293.593 254.978H290.681C290.681 254.423 290.785 253.886 290.993 253.366C291.218 252.846 291.548 252.387 291.981 251.988C292.432 251.589 292.986 251.269 293.645 251.026C294.304 250.783 295.084 250.662 295.985 250.662C297.753 250.662 299.053 251.113 299.885 252.014C300.717 252.898 301.133 253.973 301.133 255.238V264.026ZM298.351 258.956V258.046C297.935 258.029 297.484 258.029 296.999 258.046C296.531 258.063 296.037 258.124 295.517 258.228C295.014 258.332 294.512 258.583 294.009 258.982C293.506 259.363 293.255 259.849 293.255 260.438C293.255 261.045 293.454 261.469 293.853 261.712C294.252 261.937 294.702 262.05 295.205 262.05C295.673 262.05 296.21 261.885 296.817 261.556C297.441 261.227 297.883 260.759 298.143 260.152C298.195 259.979 298.238 259.797 298.273 259.606C298.325 259.415 298.351 259.199 298.351 258.956ZM321.537 250.948L314.699 268.888H311.865L313.893 263.428L308.615 250.948H311.423L315.219 260.178H315.349L318.729 250.948H321.537ZM351.269 253.288H347.551V259.554C347.551 259.883 347.56 260.204 347.577 260.516C347.612 260.811 347.681 261.071 347.785 261.296C347.907 261.539 348.089 261.729 348.331 261.868C348.574 262.007 348.912 262.076 349.345 262.076C349.605 262.076 349.874 262.059 350.151 262.024C350.429 261.989 350.775 261.903 351.191 261.764V264.234C350.689 264.303 350.264 264.347 349.917 264.364C349.571 264.381 349.25 264.39 348.955 264.39C347.551 264.39 346.503 264.078 345.809 263.454C345.133 262.813 344.795 261.851 344.795 260.568V253.288H342.559V251.026H344.795V248.244L347.551 246.58V251.026H351.269V253.288ZM371.818 257.552C371.818 259.615 371.246 261.261 370.102 262.492C368.976 263.723 367.39 264.338 365.344 264.338C363.42 264.338 361.86 263.757 360.664 262.596C359.468 261.435 358.87 259.762 358.87 257.578C358.87 256.642 359 255.758 359.26 254.926C359.52 254.094 359.91 253.366 360.43 252.742C360.968 252.118 361.635 251.624 362.432 251.26C363.247 250.896 364.2 250.714 365.292 250.714C367.338 250.714 368.932 251.338 370.076 252.586C371.238 253.817 371.818 255.472 371.818 257.552ZM368.958 257.552C368.958 256.963 368.889 256.399 368.75 255.862C368.629 255.307 368.421 254.813 368.126 254.38C367.832 253.947 367.45 253.6 366.982 253.34C366.514 253.08 365.942 252.95 365.266 252.95C364.625 252.95 364.07 253.08 363.602 253.34C363.152 253.583 362.779 253.912 362.484 254.328C362.19 254.761 361.973 255.255 361.834 255.81C361.713 256.365 361.652 256.954 361.652 257.578C361.652 258.185 361.722 258.765 361.86 259.32C361.999 259.857 362.216 260.334 362.51 260.75C362.805 261.166 363.186 261.495 363.654 261.738C364.14 261.981 364.712 262.102 365.37 262.102C366.012 262.102 366.558 261.981 367.008 261.738C367.476 261.478 367.849 261.14 368.126 260.724C368.421 260.308 368.629 259.831 368.75 259.294C368.889 258.739 368.958 258.159 368.958 257.552ZM405.554 264.026H402.772V262.622H402.746C402.659 262.726 402.529 262.873 402.356 263.064C402.2 263.255 401.966 263.445 401.654 263.636C401.342 263.809 400.943 263.965 400.458 264.104C399.972 264.243 399.383 264.312 398.69 264.312C398.204 264.312 397.719 264.225 397.234 264.052C396.766 263.896 396.35 263.662 395.986 263.35C395.604 263.038 395.301 262.665 395.076 262.232C394.85 261.781 394.738 261.27 394.738 260.698C394.738 259.693 395.067 258.817 395.726 258.072C396.402 257.309 397.182 256.798 398.066 256.538C399.106 256.226 400.042 256.07 400.874 256.07C401.706 256.053 402.338 256.053 402.772 256.07V255.342C402.772 255.134 402.754 254.9 402.72 254.64C402.685 254.38 402.581 254.094 402.408 253.782C402.252 253.539 402 253.331 401.654 253.158C401.324 252.985 400.9 252.898 400.38 252.898C399.686 252.898 399.114 253.071 398.664 253.418C398.23 253.765 398.014 254.285 398.014 254.978H395.102C395.102 254.423 395.206 253.886 395.414 253.366C395.639 252.846 395.968 252.387 396.402 251.988C396.852 251.589 397.407 251.269 398.066 251.026C398.724 250.783 399.504 250.662 400.406 250.662C402.174 250.662 403.474 251.113 404.306 252.014C405.138 252.898 405.554 253.973 405.554 255.238V264.026ZM402.772 258.956V258.046C402.356 258.029 401.905 258.029 401.42 258.046C400.952 258.063 400.458 258.124 399.938 258.228C399.435 258.332 398.932 258.583 398.43 258.982C397.927 259.363 397.676 259.849 397.676 260.438C397.676 261.045 397.875 261.469 398.274 261.712C398.672 261.937 399.123 262.05 399.626 262.05C400.094 262.05 400.631 261.885 401.238 261.556C401.862 261.227 402.304 260.759 402.564 260.152C402.616 259.979 402.659 259.797 402.694 259.606C402.746 259.415 402.772 259.199 402.772 258.956ZM438.361 260.386C438.361 260.975 438.275 261.521 438.101 262.024C437.928 262.509 437.625 262.925 437.191 263.272C436.758 263.636 436.186 263.913 435.475 264.104C434.765 264.295 433.863 264.39 432.771 264.39C431.939 264.39 431.151 264.295 430.405 264.104C429.66 263.913 429.088 263.731 428.689 263.558V260.932C428.88 261.036 429.105 261.157 429.365 261.296C429.643 261.435 429.955 261.565 430.301 261.686C430.631 261.807 430.995 261.911 431.393 261.998C431.792 262.067 432.225 262.102 432.693 262.102C433.023 262.102 433.361 262.085 433.707 262.05C434.054 262.015 434.366 261.937 434.643 261.816C434.921 261.712 435.146 261.565 435.319 261.374C435.51 261.166 435.605 260.906 435.605 260.594C435.605 260.213 435.484 259.901 435.241 259.658C435.016 259.415 434.704 259.199 434.305 259.008C433.889 258.817 433.413 258.635 432.875 258.462C432.355 258.271 431.801 258.029 431.211 257.734C430.605 257.474 430.041 257.093 429.521 256.59C429.001 256.087 428.741 255.394 428.741 254.51C428.741 253.314 429.175 252.378 430.041 251.702C430.908 251.026 432.165 250.688 433.811 250.688C434.487 250.688 435.172 250.766 435.865 250.922C436.559 251.078 437.113 251.217 437.529 251.338V254.016C437.061 253.808 436.489 253.583 435.813 253.34C435.137 253.08 434.383 252.95 433.551 252.95C433.118 252.95 432.659 253.037 432.173 253.21C431.705 253.366 431.471 253.661 431.471 254.094C431.471 254.389 431.541 254.649 431.679 254.874C431.818 255.099 432.043 255.307 432.355 255.498C432.737 255.723 433.265 255.949 433.941 256.174C434.617 256.399 435.285 256.694 435.943 257.058C436.585 257.405 437.148 257.847 437.633 258.384C438.119 258.904 438.361 259.571 438.361 260.386ZM456.774 264.026H453.992V262.622H453.966C453.879 262.726 453.749 262.873 453.576 263.064C453.42 263.255 453.186 263.445 452.874 263.636C452.562 263.809 452.163 263.965 451.678 264.104C451.192 264.243 450.603 264.312 449.91 264.312C449.424 264.312 448.939 264.225 448.454 264.052C447.986 263.896 447.57 263.662 447.206 263.35C446.824 263.038 446.521 262.665 446.296 262.232C446.07 261.781 445.958 261.27 445.958 260.698C445.958 259.693 446.287 258.817 446.946 258.072C447.622 257.309 448.402 256.798 449.286 256.538C450.326 256.226 451.262 256.07 452.094 256.07C452.926 256.053 453.558 256.053 453.992 256.07V255.342C453.992 255.134 453.974 254.9 453.94 254.64C453.905 254.38 453.801 254.094 453.628 253.782C453.472 253.539 453.22 253.331 452.874 253.158C452.544 252.985 452.12 252.898 451.6 252.898C450.906 252.898 450.334 253.071 449.884 253.418C449.45 253.765 449.234 254.285 449.234 254.978H446.322C446.322 254.423 446.426 253.886 446.634 253.366C446.859 252.846 447.188 252.387 447.622 251.988C448.072 251.589 448.627 251.269 449.286 251.026C449.944 250.783 450.724 250.662 451.626 250.662C453.394 250.662 454.694 251.113 455.526 252.014C456.358 252.898 456.774 253.973 456.774 255.238V264.026ZM453.992 258.956V258.046C453.576 258.029 453.125 258.029 452.64 258.046C452.172 258.063 451.678 258.124 451.158 258.228C450.655 258.332 450.152 258.583 449.65 258.982C449.147 259.363 448.896 259.849 448.896 260.438C448.896 261.045 449.095 261.469 449.494 261.712C449.892 261.937 450.343 262.05 450.846 262.05C451.314 262.05 451.851 261.885 452.458 261.556C453.082 261.227 453.524 260.759 453.784 260.152C453.836 259.979 453.879 259.797 453.914 259.606C453.966 259.415 453.992 259.199 453.992 258.956ZM474.291 248.01C473.771 247.889 473.338 247.802 472.991 247.75C472.662 247.698 472.281 247.655 471.847 247.62C471.379 247.62 470.998 247.681 470.703 247.802C470.409 247.906 470.157 248.105 469.949 248.4C469.828 248.625 469.741 248.877 469.689 249.154C469.655 249.431 469.646 249.761 469.663 250.142V251.104H473.381V253.366H469.663V264.156H466.907V253.366H464.567V251.104H466.907V250.662C466.907 250.038 466.942 249.423 467.011 248.816C467.098 248.192 467.323 247.62 467.687 247.1C468.034 246.632 468.511 246.242 469.117 245.93C469.741 245.601 470.617 245.419 471.743 245.384C472.211 245.384 472.636 245.419 473.017 245.488C473.399 245.54 473.823 245.609 474.291 245.696V248.01ZM493.099 256.59H493.047V258.28H483.895C483.981 258.817 484.137 259.32 484.363 259.788C484.605 260.256 484.943 260.672 485.377 261.036C485.81 261.383 486.356 261.66 487.015 261.868C487.673 262.076 488.471 262.18 489.407 262.18C489.493 262.18 489.649 262.171 489.875 262.154C490.117 262.119 490.395 262.067 490.707 261.998C491.019 261.946 491.348 261.859 491.695 261.738C492.041 261.617 492.371 261.461 492.683 261.27V263.376C492.007 263.775 491.244 264.043 490.395 264.182C489.563 264.338 488.722 264.39 487.873 264.338C487.041 264.286 486.243 264.139 485.481 263.896C484.718 263.636 484.077 263.307 483.557 262.908C482.811 262.353 482.196 261.582 481.711 260.594C481.225 259.589 480.983 258.462 480.983 257.214C480.983 255.29 481.529 253.721 482.621 252.508C483.713 251.295 485.325 250.688 487.457 250.688C489.103 250.688 490.438 251.225 491.461 252.3C492.501 253.357 493.047 254.787 493.099 256.59ZM490.317 256.07C490.317 255.706 490.256 255.333 490.135 254.952C490.013 254.571 489.84 254.233 489.615 253.938C489.372 253.643 489.06 253.401 488.679 253.21C488.315 253.019 487.881 252.924 487.379 252.924C486.391 252.924 485.576 253.201 484.935 253.756C484.311 254.293 483.938 255.065 483.817 256.07H490.317ZM108 279.59H107.948V281.28H98.796C98.8827 281.817 99.0387 282.32 99.264 282.788C99.5067 283.256 99.8447 283.672 100.278 284.036C100.711 284.383 101.257 284.66 101.916 284.868C102.575 285.076 103.372 285.18 104.308 285.18C104.395 285.18 104.551 285.171 104.776 285.154C105.019 285.119 105.296 285.067 105.608 284.998C105.92 284.946 106.249 284.859 106.596 284.738C106.943 284.617 107.272 284.461 107.584 284.27V286.376C106.908 286.775 106.145 287.043 105.296 287.182C104.464 287.338 103.623 287.39 102.774 287.338C101.942 287.286 101.145 287.139 100.382 286.896C99.6193 286.636 98.978 286.307 98.458 285.908C97.7127 285.353 97.0973 284.582 96.612 283.594C96.1267 282.589 95.884 281.462 95.884 280.214C95.884 278.29 96.43 276.721 97.522 275.508C98.614 274.295 100.226 273.688 102.358 273.688C104.005 273.688 105.339 274.225 106.362 275.3C107.402 276.357 107.948 277.787 108 279.59ZM105.218 279.07C105.218 278.706 105.157 278.333 105.036 277.952C104.915 277.571 104.741 277.233 104.516 276.938C104.273 276.643 103.961 276.401 103.58 276.21C103.216 276.019 102.783 275.924 102.28 275.924C101.292 275.924 100.477 276.201 99.836 276.756C99.212 277.293 98.8393 278.065 98.718 279.07H105.218ZM127.741 287.052H125.063V285.18H124.985C124.95 285.284 124.872 285.457 124.751 285.7C124.647 285.943 124.456 286.185 124.179 286.428C123.902 286.688 123.529 286.905 123.061 287.078C122.61 287.269 122.021 287.364 121.293 287.364C120.496 287.364 119.768 287.208 119.109 286.896C118.45 286.567 117.878 286.107 117.393 285.518C116.925 284.929 116.561 284.227 116.301 283.412C116.041 282.597 115.911 281.696 115.911 280.708C115.911 280.24 115.928 279.815 115.963 279.434C115.998 279.035 116.067 278.645 116.171 278.264C116.587 276.6 117.289 275.421 118.277 274.728C119.265 274.035 120.374 273.688 121.605 273.688C122.125 273.688 122.576 273.775 122.957 273.948C123.356 274.121 123.694 274.329 123.971 274.572C124.248 274.832 124.465 275.101 124.621 275.378C124.794 275.638 124.916 275.863 124.985 276.054H125.063V268.358H127.741V287.052ZM124.855 279.876C124.855 279.564 124.794 279.183 124.673 278.732C124.569 278.281 124.396 277.848 124.153 277.432C123.91 277.016 123.59 276.661 123.191 276.366C122.81 276.071 122.333 275.924 121.761 275.924C121.068 275.924 120.435 276.193 119.863 276.73C119.291 277.25 118.936 278.004 118.797 278.992C118.762 279.165 118.736 279.33 118.719 279.486C118.719 279.625 118.719 279.772 118.719 279.928C118.702 280.084 118.693 280.24 118.693 280.396C118.693 280.535 118.693 280.682 118.693 280.838C118.693 281.341 118.745 281.852 118.849 282.372C118.97 282.875 119.161 283.334 119.421 283.75C119.664 284.183 119.976 284.53 120.357 284.79C120.756 285.05 121.232 285.18 121.787 285.18C122.55 285.18 123.174 284.868 123.659 284.244C124.162 283.62 124.491 282.892 124.647 282.06C124.699 281.748 124.742 281.401 124.777 281.02C124.829 280.639 124.855 280.257 124.855 279.876ZM148.842 287.026H146.268V284.322H146.138C145.895 285.102 145.445 285.795 144.786 286.402C144.145 287.009 143.157 287.312 141.822 287.312C141.233 287.312 140.678 287.208 140.158 287C139.655 286.775 139.213 286.471 138.832 286.09C138.451 285.709 138.147 285.258 137.922 284.738C137.714 284.218 137.61 283.655 137.61 283.048V273.974H140.236V282.112C140.236 282.441 140.253 282.779 140.288 283.126C140.323 283.455 140.418 283.75 140.574 284.01C140.73 284.287 140.955 284.513 141.25 284.686C141.545 284.859 141.943 284.946 142.446 284.946C143.451 284.946 144.24 284.582 144.812 283.854C145.384 283.109 145.783 282.251 146.008 281.28C146.06 280.968 146.103 280.665 146.138 280.37C146.173 280.058 146.199 279.755 146.216 279.46V273.974H148.842V287.026ZM169.884 278.55H167.076C167.076 278.255 167.033 277.952 166.946 277.64C166.859 277.328 166.712 277.051 166.504 276.808C166.296 276.548 166.01 276.34 165.646 276.184C165.299 276.011 164.866 275.924 164.346 275.924C163.791 275.924 163.28 276.028 162.812 276.236C162.361 276.444 161.971 276.73 161.642 277.094C161.295 277.458 161.027 277.883 160.836 278.368C160.663 278.836 160.576 279.339 160.576 279.876C160.576 280.552 160.645 281.211 160.784 281.852C160.94 282.476 161.226 283.039 161.642 283.542C162.058 284.027 162.63 284.426 163.358 284.738C164.086 285.033 165.031 285.18 166.192 285.18C166.279 285.18 166.435 285.171 166.66 285.154C166.903 285.119 167.18 285.067 167.492 284.998C167.804 284.946 168.133 284.859 168.48 284.738C168.827 284.617 169.156 284.461 169.468 284.27V286.376C168.844 286.775 168.107 287.052 167.258 287.208C166.426 287.364 165.585 287.407 164.736 287.338C163.887 287.286 163.072 287.139 162.292 286.896C161.512 286.636 160.862 286.307 160.342 285.908C159.597 285.353 158.981 284.582 158.496 283.594C158.011 282.589 157.768 281.462 157.768 280.214C157.768 279.278 157.915 278.42 158.21 277.64C158.505 276.843 158.929 276.149 159.484 275.56C160.056 274.971 160.749 274.511 161.564 274.182C162.396 273.853 163.349 273.688 164.424 273.688C165.984 273.688 167.284 274.095 168.324 274.91C169.364 275.725 169.884 276.938 169.884 278.55ZM188.283 287.026H185.501V285.622H185.475C185.388 285.726 185.258 285.873 185.085 286.064C184.929 286.255 184.695 286.445 184.383 286.636C184.071 286.809 183.672 286.965 183.187 287.104C182.702 287.243 182.112 287.312 181.419 287.312C180.934 287.312 180.448 287.225 179.963 287.052C179.495 286.896 179.079 286.662 178.715 286.35C178.334 286.038 178.03 285.665 177.805 285.232C177.58 284.781 177.467 284.27 177.467 283.698C177.467 282.693 177.796 281.817 178.455 281.072C179.131 280.309 179.911 279.798 180.795 279.538C181.835 279.226 182.771 279.07 183.603 279.07C184.435 279.053 185.068 279.053 185.501 279.07V278.342C185.501 278.134 185.484 277.9 185.449 277.64C185.414 277.38 185.31 277.094 185.137 276.782C184.981 276.539 184.73 276.331 184.383 276.158C184.054 275.985 183.629 275.898 183.109 275.898C182.416 275.898 181.844 276.071 181.393 276.418C180.96 276.765 180.743 277.285 180.743 277.978H177.831C177.831 277.423 177.935 276.886 178.143 276.366C178.368 275.846 178.698 275.387 179.131 274.988C179.582 274.589 180.136 274.269 180.795 274.026C181.454 273.783 182.234 273.662 183.135 273.662C184.903 273.662 186.203 274.113 187.035 275.014C187.867 275.898 188.283 276.973 188.283 278.238V287.026ZM185.501 281.956V281.046C185.085 281.029 184.634 281.029 184.149 281.046C183.681 281.063 183.187 281.124 182.667 281.228C182.164 281.332 181.662 281.583 181.159 281.982C180.656 282.363 180.405 282.849 180.405 283.438C180.405 284.045 180.604 284.469 181.003 284.712C181.402 284.937 181.852 285.05 182.355 285.05C182.823 285.05 183.36 284.885 183.967 284.556C184.591 284.227 185.033 283.759 185.293 283.152C185.345 282.979 185.388 282.797 185.423 282.606C185.475 282.415 185.501 282.199 185.501 281.956ZM204.865 276.288H201.147V282.554C201.147 282.883 201.155 283.204 201.173 283.516C201.207 283.811 201.277 284.071 201.381 284.296C201.502 284.539 201.684 284.729 201.927 284.868C202.169 285.007 202.507 285.076 202.941 285.076C203.201 285.076 203.469 285.059 203.747 285.024C204.024 284.989 204.371 284.903 204.787 284.764V287.234C204.284 287.303 203.859 287.347 203.513 287.364C203.166 287.381 202.845 287.39 202.551 287.39C201.147 287.39 200.098 287.078 199.405 286.454C198.729 285.813 198.391 284.851 198.391 283.568V276.288H196.155V274.026H198.391V271.244L201.147 269.58V274.026H204.865V276.288ZM216.47 271.686H213.194V268.436H216.47V271.686ZM216.236 287.156H213.48V274.078H216.236V287.156ZM238.154 280.552C238.154 282.615 237.582 284.261 236.438 285.492C235.311 286.723 233.725 287.338 231.68 287.338C229.756 287.338 228.196 286.757 227 285.596C225.804 284.435 225.206 282.762 225.206 280.578C225.206 279.642 225.336 278.758 225.596 277.926C225.856 277.094 226.246 276.366 226.766 275.742C227.303 275.118 227.971 274.624 228.768 274.26C229.583 273.896 230.536 273.714 231.628 273.714C233.673 273.714 235.268 274.338 236.412 275.586C237.573 276.817 238.154 278.472 238.154 280.552ZM235.294 280.552C235.294 279.963 235.225 279.399 235.086 278.862C234.965 278.307 234.757 277.813 234.462 277.38C234.167 276.947 233.786 276.6 233.318 276.34C232.85 276.08 232.278 275.95 231.602 275.95C230.961 275.95 230.406 276.08 229.938 276.34C229.487 276.583 229.115 276.912 228.82 277.328C228.525 277.761 228.309 278.255 228.17 278.81C228.049 279.365 227.988 279.954 227.988 280.578C227.988 281.185 228.057 281.765 228.196 282.32C228.335 282.857 228.551 283.334 228.846 283.75C229.141 284.166 229.522 284.495 229.99 284.738C230.475 284.981 231.047 285.102 231.706 285.102C232.347 285.102 232.893 284.981 233.344 284.738C233.812 284.478 234.185 284.14 234.462 283.724C234.757 283.308 234.965 282.831 235.086 282.294C235.225 281.739 235.294 281.159 235.294 280.552ZM258.211 287.052H255.611V279.954C255.611 279.555 255.602 279.148 255.585 278.732C255.585 278.316 255.516 277.926 255.377 277.562C255.256 277.215 255.048 276.929 254.753 276.704C254.458 276.461 254.025 276.314 253.453 276.262C252.656 276.21 251.945 276.539 251.321 277.25C250.697 277.961 250.238 278.862 249.943 279.954C249.874 280.266 249.822 280.578 249.787 280.89C249.752 281.185 249.735 281.462 249.735 281.722V287.052H247.135V273.974H249.735V276.886H249.865C249.934 276.713 250.038 276.453 250.177 276.106C250.316 275.742 250.541 275.378 250.853 275.014C251.148 274.667 251.529 274.364 251.997 274.104C252.482 273.827 253.106 273.688 253.869 273.688C255.117 273.688 256.148 274.061 256.963 274.806C257.795 275.551 258.211 276.591 258.211 277.926V287.052ZM278.135 287.026H275.353V285.622H275.327C275.241 285.726 275.111 285.873 274.937 286.064C274.781 286.255 274.547 286.445 274.235 286.636C273.923 286.809 273.525 286.965 273.039 287.104C272.554 287.243 271.965 287.312 271.271 287.312C270.786 287.312 270.301 287.225 269.815 287.052C269.347 286.896 268.931 286.662 268.567 286.35C268.186 286.038 267.883 285.665 267.657 285.232C267.432 284.781 267.319 284.27 267.319 283.698C267.319 282.693 267.649 281.817 268.307 281.072C268.983 280.309 269.763 279.798 270.647 279.538C271.687 279.226 272.623 279.07 273.455 279.07C274.287 279.053 274.92 279.053 275.353 279.07V278.342C275.353 278.134 275.336 277.9 275.301 277.64C275.267 277.38 275.163 277.094 274.989 276.782C274.833 276.539 274.582 276.331 274.235 276.158C273.906 275.985 273.481 275.898 272.961 275.898C272.268 275.898 271.696 276.071 271.245 276.418C270.812 276.765 270.595 277.285 270.595 277.978H267.683C267.683 277.423 267.787 276.886 267.995 276.366C268.221 275.846 268.55 275.387 268.983 274.988C269.434 274.589 269.989 274.269 270.647 274.026C271.306 273.783 272.086 273.662 272.987 273.662C274.755 273.662 276.055 274.113 276.887 275.014C277.719 275.898 278.135 276.973 278.135 278.238V287.026ZM275.353 281.956V281.046C274.937 281.029 274.487 281.029 274.001 281.046C273.533 281.063 273.039 281.124 272.519 281.228C272.017 281.332 271.514 281.583 271.011 281.982C270.509 282.363 270.257 282.849 270.257 283.438C270.257 284.045 270.457 284.469 270.855 284.712C271.254 284.937 271.705 285.05 272.207 285.05C272.675 285.05 273.213 284.885 273.819 284.556C274.443 284.227 274.885 283.759 275.145 283.152C275.197 282.979 275.241 282.797 275.275 282.606C275.327 282.415 275.353 282.199 275.353 281.956ZM290.479 287.104H287.723V268.41H290.479V287.104ZM326.413 279.59H326.361V281.28H317.209C317.296 281.817 317.452 282.32 317.677 282.788C317.92 283.256 318.258 283.672 318.691 284.036C319.125 284.383 319.671 284.66 320.329 284.868C320.988 285.076 321.785 285.18 322.721 285.18C322.808 285.18 322.964 285.171 323.189 285.154C323.432 285.119 323.709 285.067 324.021 284.998C324.333 284.946 324.663 284.859 325.009 284.738C325.356 284.617 325.685 284.461 325.997 284.27V286.376C325.321 286.775 324.559 287.043 323.709 287.182C322.877 287.338 322.037 287.39 321.187 287.338C320.355 287.286 319.558 287.139 318.795 286.896C318.033 286.636 317.391 286.307 316.871 285.908C316.126 285.353 315.511 284.582 315.025 283.594C314.54 282.589 314.297 281.462 314.297 280.214C314.297 278.29 314.843 276.721 315.935 275.508C317.027 274.295 318.639 273.688 320.771 273.688C322.418 273.688 323.753 274.225 324.775 275.3C325.815 276.357 326.361 277.787 326.413 279.59ZM323.631 279.07C323.631 278.706 323.571 278.333 323.449 277.952C323.328 277.571 323.155 277.233 322.929 276.938C322.687 276.643 322.375 276.401 321.993 276.21C321.629 276.019 321.196 275.924 320.693 275.924C319.705 275.924 318.891 276.201 318.249 276.756C317.625 277.293 317.253 278.065 317.131 279.07H323.631ZM346.362 287.052H343.762V279.954C343.762 279.555 343.754 279.148 343.736 278.732C343.736 278.316 343.667 277.926 343.528 277.562C343.407 277.215 343.199 276.929 342.904 276.704C342.61 276.461 342.176 276.314 341.604 276.262C340.807 276.21 340.096 276.539 339.472 277.25C338.848 277.961 338.389 278.862 338.094 279.954C338.025 280.266 337.973 280.578 337.938 280.89C337.904 281.185 337.886 281.462 337.886 281.722V287.052H335.286V273.974H337.886V276.886H338.016C338.086 276.713 338.19 276.453 338.328 276.106C338.467 275.742 338.692 275.378 339.004 275.014C339.299 274.667 339.68 274.364 340.148 274.104C340.634 273.827 341.258 273.688 342.02 273.688C343.268 273.688 344.3 274.061 345.114 274.806C345.946 275.551 346.362 276.591 346.362 277.926V287.052ZM367.612 274L362.36 287.078H360.02L354.274 274H357.108L361.138 283.464H361.216L364.856 274H367.612ZM378.483 271.686H375.207V268.436H378.483V271.686ZM378.249 287.156H375.493V274.078H378.249V287.156ZM396.423 276.444C395.123 276.444 393.997 276.687 393.043 277.172C392.09 277.64 391.483 278.429 391.223 279.538C391.137 279.85 391.067 280.197 391.015 280.578C390.981 280.942 390.955 281.332 390.937 281.748V287.104H388.207V274.026H390.937V276.678H391.067C391.171 276.435 391.336 276.123 391.561 275.742C391.787 275.343 392.09 275.014 392.471 274.754C392.991 274.407 393.511 274.156 394.031 274C394.551 273.827 395.349 273.74 396.423 273.74V276.444ZM416.157 280.552C416.157 282.615 415.585 284.261 414.441 285.492C413.315 286.723 411.729 287.338 409.683 287.338C407.759 287.338 406.199 286.757 405.003 285.596C403.807 284.435 403.209 282.762 403.209 280.578C403.209 279.642 403.339 278.758 403.599 277.926C403.859 277.094 404.249 276.366 404.769 275.742C405.307 275.118 405.974 274.624 406.771 274.26C407.586 273.896 408.539 273.714 409.631 273.714C411.677 273.714 413.271 274.338 414.415 275.586C415.577 276.817 416.157 278.472 416.157 280.552ZM413.297 280.552C413.297 279.963 413.228 279.399 413.089 278.862C412.968 278.307 412.76 277.813 412.465 277.38C412.171 276.947 411.789 276.6 411.321 276.34C410.853 276.08 410.281 275.95 409.605 275.95C408.964 275.95 408.409 276.08 407.941 276.34C407.491 276.583 407.118 276.912 406.823 277.328C406.529 277.761 406.312 278.255 406.173 278.81C406.052 279.365 405.991 279.954 405.991 280.578C405.991 281.185 406.061 281.765 406.199 282.32C406.338 282.857 406.555 283.334 406.849 283.75C407.144 284.166 407.525 284.495 407.993 284.738C408.479 284.981 409.051 285.102 409.709 285.102C410.351 285.102 410.897 284.981 411.347 284.738C411.815 284.478 412.188 284.14 412.465 283.724C412.76 283.308 412.968 282.831 413.089 282.294C413.228 281.739 413.297 281.159 413.297 280.552ZM436.215 287.052H433.615V279.954C433.615 279.555 433.606 279.148 433.589 278.732C433.589 278.316 433.519 277.926 433.381 277.562C433.259 277.215 433.051 276.929 432.757 276.704C432.462 276.461 432.029 276.314 431.457 276.262C430.659 276.21 429.949 276.539 429.325 277.25C428.701 277.961 428.241 278.862 427.947 279.954C427.877 280.266 427.825 280.578 427.791 280.89C427.756 281.185 427.739 281.462 427.739 281.722V287.052H425.139V273.974H427.739V276.886H427.869C427.938 276.713 428.042 276.453 428.181 276.106C428.319 275.742 428.545 275.378 428.857 275.014C429.151 274.667 429.533 274.364 430.001 274.104C430.486 273.827 431.11 273.688 431.873 273.688C433.121 273.688 434.152 274.061 434.967 274.806C435.799 275.551 436.215 276.591 436.215 277.926V287.052ZM463.939 287.052H461.365V279.954C461.365 279.555 461.356 279.139 461.339 278.706C461.321 278.273 461.252 277.874 461.131 277.51C461.009 277.146 460.81 276.843 460.533 276.6C460.273 276.357 459.883 276.236 459.363 276.236C458.687 276.236 458.097 276.591 457.595 277.302C457.092 278.013 456.737 278.888 456.529 279.928C456.477 280.275 456.433 280.595 456.399 280.89C456.364 281.185 456.347 281.462 456.347 281.722V287.052H453.747V279.954C453.747 279.555 453.729 279.139 453.695 278.706C453.677 278.273 453.608 277.874 453.487 277.51C453.365 277.146 453.166 276.851 452.889 276.626C452.611 276.383 452.23 276.262 451.745 276.262C451.277 276.262 450.843 276.444 450.445 276.808C450.063 277.172 449.734 277.614 449.457 278.134C449.214 278.706 449.032 279.278 448.911 279.85C448.789 280.422 448.729 281.046 448.729 281.722V287.052H446.129V274H448.729V276.886H448.807C448.859 276.678 448.963 276.401 449.119 276.054C449.275 275.69 449.491 275.335 449.769 274.988C450.046 274.641 450.384 274.338 450.783 274.078C451.181 273.818 451.658 273.688 452.213 273.688C453.374 273.688 454.215 273.991 454.735 274.598C455.255 275.205 455.619 275.933 455.827 276.782H455.983C456 276.678 456.078 276.461 456.217 276.132C456.373 275.785 456.598 275.43 456.893 275.066C457.187 274.719 457.569 274.407 458.037 274.13C458.505 273.835 459.085 273.688 459.779 273.688C460.975 273.688 461.963 274.035 462.743 274.728C463.54 275.421 463.939 276.496 463.939 277.952V287.052ZM484.929 279.59H484.877V281.28H475.725C475.812 281.817 475.968 282.32 476.193 282.788C476.436 283.256 476.774 283.672 477.207 284.036C477.64 284.383 478.186 284.66 478.845 284.868C479.504 285.076 480.301 285.18 481.237 285.18C481.324 285.18 481.48 285.171 481.705 285.154C481.948 285.119 482.225 285.067 482.537 284.998C482.849 284.946 483.178 284.859 483.525 284.738C483.872 284.617 484.201 284.461 484.513 284.27V286.376C483.837 286.775 483.074 287.043 482.225 287.182C481.393 287.338 480.552 287.39 479.703 287.338C478.871 287.286 478.074 287.139 477.311 286.896C476.548 286.636 475.907 286.307 475.387 285.908C474.642 285.353 474.026 284.582 473.541 283.594C473.056 282.589 472.813 281.462 472.813 280.214C472.813 278.29 473.359 276.721 474.451 275.508C475.543 274.295 477.155 273.688 479.287 273.688C480.934 273.688 482.268 274.225 483.291 275.3C484.331 276.357 484.877 277.787 484.929 279.59ZM482.147 279.07C482.147 278.706 482.086 278.333 481.965 277.952C481.844 277.571 481.67 277.233 481.445 276.938C481.202 276.643 480.89 276.401 480.509 276.21C480.145 276.019 479.712 275.924 479.209 275.924C478.221 275.924 477.406 276.201 476.765 276.756C476.141 277.293 475.768 278.065 475.647 279.07H482.147ZM504.878 287.052H502.278V279.954C502.278 279.555 502.269 279.148 502.252 278.732C502.252 278.316 502.183 277.926 502.044 277.562C501.923 277.215 501.715 276.929 501.42 276.704C501.125 276.461 500.692 276.314 500.12 276.262C499.323 276.21 498.612 276.539 497.988 277.25C497.364 277.961 496.905 278.862 496.61 279.954C496.541 280.266 496.489 280.578 496.454 280.89C496.419 281.185 496.402 281.462 496.402 281.722V287.052H493.802V273.974H496.402V276.886H496.532C496.601 276.713 496.705 276.453 496.844 276.106C496.983 275.742 497.208 275.378 497.52 275.014C497.815 274.667 498.196 274.364 498.664 274.104C499.149 273.827 499.773 273.688 500.536 273.688C501.784 273.688 502.815 274.061 503.63 274.806C504.462 275.551 504.878 276.591 504.878 277.926V287.052ZM521.89 276.288H518.172V282.554C518.172 282.883 518.181 283.204 518.198 283.516C518.233 283.811 518.302 284.071 518.406 284.296C518.527 284.539 518.709 284.729 518.952 284.868C519.195 285.007 519.533 285.076 519.966 285.076C520.226 285.076 520.495 285.059 520.772 285.024C521.049 284.989 521.396 284.903 521.812 284.764V287.234C521.309 287.303 520.885 287.347 520.538 287.364C520.191 287.381 519.871 287.39 519.576 287.39C518.172 287.39 517.123 287.078 516.43 286.454C515.754 285.813 515.416 284.851 515.416 283.568V276.288H513.18V274.026H515.416V271.244L518.172 269.58V274.026H521.89V276.288ZM533.859 289.106H530.271V285.518H533.859V289.106Z" fill="black"/>
<defs>
<clipPath id="clip0">
<rect width="735" height="280" fill="white"/>
</clipPath>
</defs>
</svg>
