<svg width="662" height="286" viewBox="0 0 662 286" fill="none" xmlns="http://www.w3.org/2000/svg">
<g clip-path="url(#clip0)">
<path d="M172.97 144.371L127.75 278.891H73.22L28 144.371H72.84L100.58 236.901L128.13 144.371H172.97ZM270.952 196.621V231.391H182.412V196.621H270.952ZM344.515 144.371V220.181C344.515 226.387 345.845 231.327 348.505 235.001C351.291 238.547 355.725 240.321 361.805 240.321C367.885 240.321 372.381 238.547 375.295 235.001C378.208 231.327 379.665 226.387 379.665 220.181V144.371H421.655V220.181C421.655 232.974 418.995 243.931 413.675 253.051C408.355 262.044 401.071 268.821 391.825 273.381C382.578 277.941 372.255 280.221 360.855 280.221C349.455 280.221 339.321 277.941 330.455 273.381C321.715 268.821 314.875 262.044 309.935 253.051C304.995 244.057 302.525 233.101 302.525 220.181V144.371H344.515ZM520.597 170.971C532.884 170.971 542.447 175.087 549.287 183.321C556.254 191.554 559.737 202.701 559.737 216.761V278.891H517.747V222.081C517.747 217.014 516.354 213.024 513.567 210.111C510.907 207.071 507.297 205.551 502.737 205.551C498.051 205.551 494.377 207.071 491.717 210.111C489.057 213.024 487.727 217.014 487.727 222.081V278.891H445.547V171.731H487.727V188.071C491.021 183.004 495.391 178.887 500.837 175.721C506.411 172.554 512.997 170.971 520.597 170.971ZM605.008 163.181C597.661 163.181 591.771 161.217 587.338 157.291C582.904 153.364 580.688 148.424 580.688 142.471C580.688 136.391 582.904 131.387 587.338 127.461C591.771 123.407 597.661 121.381 605.008 121.381C612.228 121.381 618.054 123.407 622.488 127.461C626.921 131.387 629.138 136.391 629.138 142.471C629.138 148.424 626.921 153.364 622.488 157.291C618.054 161.217 612.228 163.181 605.008 163.181ZM625.908 171.731V278.891H583.728V171.731H625.908Z" fill="#F7CD53"/>
<path d="M131.999 106.22L90.825 228.704H41.174L0 106.22H40.828L66.086 190.471L91.171 106.22H131.999ZM202.184 153.795V185.454H121.566V153.795H202.184ZM250.135 106.22V175.247C250.135 180.899 251.346 185.397 253.768 188.741C256.305 191.971 260.342 193.585 265.878 193.585C271.414 193.585 275.508 191.971 278.161 188.741C280.814 185.397 282.14 180.899 282.14 175.247V106.22H320.373V175.247C320.373 186.896 317.951 196.872 313.107 205.176C308.263 213.365 301.631 219.535 293.212 223.687C284.793 227.839 275.393 229.915 265.013 229.915C254.633 229.915 245.406 227.839 237.333 223.687C229.375 219.535 223.147 213.365 218.649 205.176C214.151 196.988 211.902 187.011 211.902 175.247V106.22H250.135ZM391.433 130.44C402.62 130.44 411.328 134.189 417.556 141.685C423.899 149.182 427.071 159.331 427.071 172.133V228.704H388.838V176.977C388.838 172.364 387.569 168.731 385.032 166.078C382.61 163.31 379.323 161.926 375.171 161.926C370.903 161.926 367.559 163.31 365.137 166.078C362.715 168.731 361.504 172.364 361.504 176.977V228.704H323.098V131.132H361.504V146.01C364.502 141.397 368.481 137.649 373.441 134.765C378.515 131.882 384.513 130.44 391.433 130.44ZM449.261 123.347C442.571 123.347 437.208 121.56 433.172 117.984C429.135 114.409 427.117 109.911 427.117 104.49C427.117 98.9542 429.135 94.3985 433.172 90.8232C437.208 87.1325 442.571 85.2872 449.261 85.2872C455.835 85.2872 461.14 87.1325 465.177 90.8232C469.213 94.3985 471.232 98.9542 471.232 104.49C471.232 109.911 469.213 114.409 465.177 117.984C461.14 121.56 455.835 123.347 449.261 123.347ZM468.291 131.132V228.704H429.885V131.132H468.291Z" fill="black"/>
</g>
<defs>
<clipPath id="clip0">
<rect width="662" height="286" fill="white"/>
</clipPath>
</defs>
</svg>
